<svg xmlns="http://www.w3.org/2000/svg" version="1.1" xmlns:xlink="http://www.w3.org/1999/xlink" viewBox="0 0 200 200"><rect width="200" height="200" fill="url('#gradient')"></rect><defs><linearGradient id="gradient" gradientTransform="rotate(86 0.5 0.5)"><stop offset="0%" stop-color="#ffffff"></stop><stop offset="100%" stop-color="#ffffff"></stop></linearGradient></defs><g><g fill="#2fa98e" transform="matrix(6.105747126436782,0,0,6.105747126436782,10.45624800961592,131.01532001276126)" stroke="#2fa98e" stroke-width="0.5"><path d="M1.07-14.22L5.58-14.22L8.75-4.33L11.91-14.22L16.43-14.22L16.43 0L12.99 0L12.99-3.32L13.32-10.12L9.88 0L7.62 0L4.17-10.13L4.50-3.32L4.50 0L1.07 0L1.07-14.22ZM28.26-5.36L28.26-5.21Q28.26-2.74 27.15-1.27Q26.04 0.20 24.16 0.20L24.16 0.20Q22.71 0.20 21.77-0.87L21.77-0.87L21.77 4.06L18.48 4.06L18.48-10.57L21.55-10.57L21.65-9.59Q22.60-10.76 24.14-10.76L24.14-10.76Q26.09-10.76 27.18-9.32Q28.26-7.88 28.26-5.36L28.26-5.36ZM24.97-5.06L24.97-5.41Q24.97-8.22 23.33-8.22L23.33-8.22Q22.16-8.22 21.77-7.38L21.77-7.38L21.77-3.22Q22.20-2.34 23.35-2.34L23.35-2.34Q24.92-2.34 24.97-5.06L24.97-5.06Z"></path></g></g></svg>